<svg width="301" height="74" viewBox="0 0 301 74" fill="none" xmlns="http://www.w3.org/2000/svg">
<path d="M51.9628 73.3052L36.1595 47.4587L21.1686 73.3052H0.34375L25.8948 34.3878L3.29763 0.270508H24.4179L36.9719 21.0954L49.0828 0.270508H70.1292L47.8274 34.8309L73.083 73.3052H51.9628Z" fill="#9531F0"/>
<path d="M90.1306 73.3052V16.6645H75.7305V0.270508H123.14V16.6645H108.814V73.3052H90.1306Z" fill="#9531F0"/>
<path d="M163.8 73.3052L146.889 49.748H146.668V73.3052H128.797V0.270508H152.649C160.256 0.270508 166.09 1.23052 169.93 2.929C177.831 6.47366 183.37 15.0399 183.37 25.4523C183.37 36.9725 176.428 46.4987 165.203 48.4188L185.068 73.3052H163.726H163.8ZM153.683 36.9725C161.068 36.9725 165.647 33.5017 165.647 26.4862C165.647 20.1353 160.92 16.5907 153.905 16.5907H146.816V36.8986H153.757L153.683 36.9725Z" fill="#9531F0"/>
<path d="M267.685 73.6729V17.0322H253.285V0.638184H300.695V17.0322H286.369V73.6729H267.685Z" fill="#9531F0"/>
<path d="M190.793 44.354V28.2554H247.286V44.354H190.793Z" fill="#9531F0"/>
<path d="M190.793 73.5254V57.4268H247.286V73.5254H190.793Z" fill="#9531F0"/>
<path d="M190.793 16.5894V0.490723H247.286V16.5894H190.793Z" fill="#9531F0"/>
<path fill-rule="evenodd" clip-rule="evenodd" d="M215.312 72.1969V2.18994H222.697V72.1969H215.312Z" fill="#9531F0"/>
</svg>
