<svg width="301" height="75" viewBox="0 0 301 75" fill="none" xmlns="http://www.w3.org/2000/svg">
<path d="M51.9628 73.7749L36.1595 47.9285L21.1686 73.7749H0.34375L25.8948 34.8575L3.29763 0.740234H24.4179L36.9719 21.5651L49.0828 0.740234H70.1292L47.8274 35.3006L73.083 73.7749H51.9628Z" fill="black"/>
<path d="M90.1306 73.7749V17.1343H75.7305V0.740234H123.14V17.1343H108.814V73.7749H90.1306Z" fill="black"/>
<path d="M163.8 73.7749L146.889 50.2177H146.668V73.7749H128.797V0.740234H152.649C160.256 0.740234 166.09 1.70025 169.93 3.39873C177.831 6.94338 183.37 15.5096 183.37 25.9221C183.37 37.4422 176.428 46.9685 165.203 48.8885L185.068 73.7749H163.726H163.8ZM153.683 37.4422C161.068 37.4422 165.647 33.9714 165.647 26.9559C165.647 20.6051 160.92 17.0604 153.905 17.0604H146.816V37.3683H153.757L153.683 37.4422Z" fill="black"/>
<path d="M267.685 74.1426V17.5019H253.285V1.10791H300.695V17.5019H286.369V74.1426H267.685Z" fill="black"/>
<path d="M190.793 44.8237V28.7251H247.286V44.8237H190.793Z" fill="black"/>
<path d="M190.793 73.9951V57.8965H247.286V73.9951H190.793Z" fill="black"/>
<path d="M190.793 17.0591V0.960449H247.286V17.0591H190.793Z" fill="black"/>
<path fill-rule="evenodd" clip-rule="evenodd" d="M215.312 72.6666V2.65967H222.697V72.6666H215.312Z" fill="black"/>
</svg>
