<svg width="301" height="74" viewBox="0 0 301 74" fill="none" xmlns="http://www.w3.org/2000/svg">
<path d="M51.9628 73.437L36.1595 47.5906L21.1686 73.437H0.34375L25.8948 34.5197L3.29763 0.402344H24.4179L36.9719 21.2272L49.0828 0.402344H70.1292L47.8274 34.9627L73.083 73.437H51.9628Z" fill="#04F7E6"/>
<path d="M90.1306 73.437V16.7964H75.7305V0.402344H123.14V16.7964H108.814V73.437H90.1306Z" fill="#04F7E6"/>
<path d="M163.8 73.437L146.889 49.8798H146.668V73.437H128.797V0.402344H152.649C160.256 0.402344 166.09 1.36235 169.93 3.06084C177.831 6.60549 183.37 15.1717 183.37 25.5842C183.37 37.1043 176.428 46.6306 165.203 48.5506L185.068 73.437H163.726H163.8ZM153.683 37.1043C161.068 37.1043 165.647 33.6335 165.647 26.618C165.647 20.2672 160.92 16.7225 153.905 16.7225H146.816V37.0305H153.757L153.683 37.1043Z" fill="#04F7E6"/>
<path d="M267.685 73.8047V17.1641H253.285V0.77002H300.695V17.1641H286.369V73.8047H267.685Z" fill="#04F7E6"/>
<path d="M190.793 44.4858V28.3872H247.286V44.4858H190.793Z" fill="#04F7E6"/>
<path d="M190.793 73.6568V57.5581H247.286V73.6568H190.793Z" fill="#04F7E6"/>
<path d="M190.793 16.7212V0.622559H247.286V16.7212H190.793Z" fill="#04F7E6"/>
<path fill-rule="evenodd" clip-rule="evenodd" d="M215.312 72.3282V2.32129H222.697V72.3282H215.312Z" fill="#04F7E6"/>
</svg>
